<svg xmlns="http://www.w3.org/2000/svg" width="420" height="640" viewBox="0 0 420 640" fill="none"
  stroke="#2E4630" stroke-width="1.5" stroke-linecap="round" stroke-linejoin="round">
  <path d="M 108 626 C 150 430, 300 300, 332 66"/>
  <path d="M 251.4 307.8 L 250.1 300.9 M 250.1 300.9 Q 254.8 286.2 244.3 271.5 Q 240.1 289.1 250.1 300.9 Z M 250.1 300.9 Q 247.1 285.6 244.3 271.5"/>  <path d="M 260.5 289.5 L 266.8 286.4 M 266.8 286.4 Q 282.0 287.3 293.2 273.5 Q 275.4 273.9 266.8 286.4 Z M 266.8 286.4 Q 280.6 279.7 293.2 273.5"/>  <path d="M 269.4 270.9 L 267.8 264.1 M 267.8 264.1 Q 272.2 249.8 261.3 236.0 Q 257.6 253.1 267.8 264.1 Z M 267.8 264.1 Q 264.4 249.5 261.3 236.0"/>  <path d="M 277.9 252.0 L 284.1 248.7 M 284.1 248.7 Q 298.8 249.3 308.9 235.3 Q 291.7 236.1 284.1 248.7 Z M 284.1 248.7 Q 297.0 241.7 308.9 235.3"/>  <path d="M 286.1 232.7 L 284.3 226.0 M 284.3 226.0 Q 288.1 212.0 276.8 199.4 Q 273.7 216.0 284.3 226.0 Z M 284.3 226.0 Q 280.4 212.1 276.8 199.4"/>  <path d="M 293.9 213.0 L 299.9 209.4 M 299.9 209.4 Q 314.2 209.5 323.0 195.4 Q 306.5 196.7 299.9 209.4 Z M 299.9 209.4 Q 311.9 202.1 323.0 195.4"/>  <path d="M 301.3 192.9 L 299.0 186.3 M 299.0 186.3 Q 302.3 172.6 290.5 161.3 Q 288.1 177.4 299.0 186.3 Z M 299.0 186.3 Q 294.6 173.3 290.5 161.3"/>  <path d="M 308.1 172.3 L 313.9 168.3 M 313.9 168.3 Q 327.7 167.9 335.1 153.6 Q 319.2 155.5 313.9 168.3 Z M 313.9 168.3 Q 324.9 160.7 335.1 153.6"/>  <path d="M 314.4 151.1 L 311.7 144.6 M 311.7 144.6 Q 314.3 131.3 302.1 121.3 Q 300.5 137.0 311.7 144.6 Z M 311.7 144.6 Q 306.7 132.5 302.1 121.3"/>  <path d="M 320.0 129.4 L 325.5 125.0 M 325.5 125.0 Q 338.9 124.0 344.8 109.7 Q 329.5 112.3 325.5 125.0 Z M 325.5 125.0 Q 335.5 117.1 344.8 109.7"/>  <path d="M 325.0 107.0 L 321.9 100.8 M 321.9 100.8 Q 323.8 87.8 311.2 79.3 Q 310.4 94.4 321.9 100.8 Z M 321.9 100.8 Q 316.3 89.6 311.2 79.3"/>  <path d="M 329.3 84.0 L 334.4 79.3 M 334.4 79.3 Q 347.3 77.7 351.7 63.5 Q 337.1 66.7 334.4 79.3 Z M 334.4 79.3 Q 343.4 71.1 351.7 63.5"/>  <path d="M 135.5 536.3 Q 116.8 484.7 74.7 432.8 Q 99.5 494.8 135.5 536.3 Z M 135.5 536.3 Q 103.9 482.5 74.7 432.8"/>  <path d="M 168.9 462.8 Q 223.8 462.1 286.5 439.4 Q 219.9 442.5 168.9 462.8 Z M 168.9 462.8 Q 230.1 450.6 286.5 439.4"/>
</svg>
