<svg xmlns="http://www.w3.org/2000/svg" width="480" height="720" viewBox="0 0 480 720" fill="none"
  stroke="#2E4630" stroke-width="1.5" stroke-linecap="round" stroke-linejoin="round">
  <path d="M 242 706 C 206 520, 286 300, 238 46"/>
  <path d="M 233.0 625.9 L 220.4 619.8 M 220.4 619.8 Q 178.0 570.7 101.3 562.9 Q 155.6 617.7 220.4 619.8 Z M 220.4 619.8 Q 158.5 590.2 101.3 562.9"/>  <path d="M 233.4 547.9 L 245.8 541.4 M 245.8 541.4 Q 305.1 537.4 353.1 485.5 Q 283.1 495.2 245.8 541.4 Z M 245.8 541.4 Q 301.6 512.4 353.1 485.5"/>  <path d="M 238.9 466.5 L 227.6 458.1 M 227.6 458.1 Q 200.9 411.2 139.5 392.3 Q 175.1 445.8 227.6 458.1 Z M 227.6 458.1 Q 181.8 423.9 139.5 392.3"/>  <path d="M 246.2 381.6 L 258.4 374.8 M 258.4 374.8 Q 306.7 369.9 344.8 326.4 Q 287.8 336.1 258.4 374.8 Z M 258.4 374.8 Q 303.3 349.6 344.8 326.4"/>  <path d="M 252.2 293.3 L 241.2 284.5 M 241.2 284.5 Q 221.1 246.4 172.5 229.5 Q 199.6 273.2 241.2 284.5 Z M 241.2 284.5 Q 205.5 255.9 172.5 229.5"/>  <path d="M 253.6 201.5 L 264.4 192.7 M 264.4 192.7 Q 300.7 182.4 324.1 144.0 Q 281.8 159.2 264.4 192.7 Z M 264.4 192.7 Q 295.4 167.4 324.1 144.0"/>  <path d="M 247.2 106.3 L 235.5 98.6 M 235.5 98.6 Q 217.7 71.6 180.3 62.4 Q 203.6 93.0 235.5 98.6 Z M 235.5 98.6 Q 206.8 79.8 180.3 62.4"/>
</svg>
